<svg version="1.1" id="Layer_1" xmlns="http://www.w3.org/2000/svg" xmlns:xlink="http://www.w3.org/1999/xlink" x="0px" y="0px"
	 viewBox="0 0 100 100" style="enable-background:new 0 0 100 100;" xml:space="preserve">
<style>
	.st2{
	fill:none;
	stroke:#FFFFFF;
	stroke-width:1.2;
	stroke-linecap:round;
	stroke-linejoin:round;
	stroke-miterlimit:10;
	stroke-dasharray:200;
	stroke-dashoffset:200;
}

</style>
<path class="st2" d="M32.1,43.9c0,0-0.3-3.4,0.9-3.7c1.2-0.3,15,3.1,17.8,2.5c2.8-0.6,11-8.6,11.3-6.4c0.3,2.1-0.9,4.3-0.9,3.1
	C61.2,38,59.4,12,40.1,12s-27,15-18.7,33.4c-4.6-7.7-9.5,0.3-8,4.3s3.7,7.4,9.5,4.6c0,4.3,0,7,0.3,6.1s2.1-4.3,2.1-2.1
	c0,3.1-2.5,13.8-1.2,12.6c1.2-1.2,3.1-9.5,3.1-8.3c0,1.2-1.5,8-1.2,8.3c0.3,0.3,3.7-10.4,4-8.9c0.3,1.5-3.1,12.6-2.5,12.6
	c0.6,0,3.7-8.9,4.3-8.9s-1.8,15-1.2,15.3c0.6,0.3,3.4-14.1,4-14.1S33,87.1,33.9,87.1s4.9-17.2,6.1-17.2c1.2,0-0.6,17.8,0,18.1
	s3.4-17.8,4.3-17.8S45.3,88,46.2,88c0.9,0,1.2-14.1,1.8-14.1s1.5,11.3,2.1,11.3c0.6,0,0.6-11,1.2-11s3.4,13.2,3.7,13.2
	c0.3,0-0.6-12.6,0-12.6c0.6,0,3.7,9.2,4,9.2c0.3,0-1.2-11-0.9-11.3c0.3-0.3,4,6.7,4,6.7s-3.1-11-2.5-11.3s5.2,3.7,5.5,3.4
	s-2.1-5.8-1.8-6.1c0.3-0.3,3.7,2.1,3.7,2.1s-3.7-11.6-4.3-11.3c-0.6,0.3-0.6,3.4-0.6,3.4s-1.2-2.8-1.5-2.8c-0.3,0,0,3.7-0.6,4
	C59.4,61,58.4,57,57.8,57s0.3,4.3-0.6,4.6C56.3,61.9,56.3,58,56,58c-0.3,0-0.3,4-0.9,4c-0.6,0-1.5-4.6-1.8-4.6
	c-0.3,0-0.6,5.2-1.2,5.2c-0.6,0-1.2-4.6-1.8-4.6c-0.6,0-1.2,5.8-1.5,5.8c-0.3,0-1.5-3.1-2.1-2.8c-0.6,0.3-1.5,6.1-1.5,6.1
	s12.3,21.1,30.3,15.3c18.1-5.8,12.3-26,1.2-26.7c-11-0.6-15.6,11-21.5,11">
	</path>
</svg>
